<mxfile host="app.diagrams.net" modified="2020-08-31T14:07:15.029Z" agent="5.0 (Windows NT 10.0; Win64; x64) AppleWebKit/537.36 (KHTML, like Gecko) Chrome/84.0.4147.135 Safari/537.36" etag="9yVpiRsZTN_Xlz0loAOh" version="13.6.6" type="github">
  <diagram id="SzC1pkk3Dp7Q5FKMa4gf" name="Page-1">
    <mxGraphModel dx="3166" dy="2455" grid="1" gridSize="10" guides="1" tooltips="1" connect="1" arrows="1" fold="1" page="1" pageScale="1" pageWidth="827" pageHeight="1169" math="0" shadow="0">
      <root>
        <mxCell id="0" />
        <mxCell id="1" parent="0" />
        <mxCell id="fV-SpjQVINLK7v3Sb_gR-1" value="" style="strokeWidth=1;shadow=0;dashed=0;align=center;html=1;shape=mxgraph.mockup.containers.browserWindow;rSize=0;strokeColor=#666666;strokeColor2=#008cff;strokeColor3=#c4c4c4;mainText=,;recursiveResize=0;" vertex="1" parent="1">
          <mxGeometry x="7" y="-1040" width="820" height="5430" as="geometry" />
        </mxCell>
        <mxCell id="fV-SpjQVINLK7v3Sb_gR-2" value="Page 1" style="strokeWidth=1;shadow=0;dashed=0;align=center;html=1;shape=mxgraph.mockup.containers.anchor;fontSize=17;fontColor=#666666;align=left;" vertex="1" parent="fV-SpjQVINLK7v3Sb_gR-1">
          <mxGeometry x="60" y="12" width="110" height="26" as="geometry" />
        </mxCell>
        <mxCell id="fV-SpjQVINLK7v3Sb_gR-3" value="https://www.draw.io" style="strokeWidth=1;shadow=0;dashed=0;align=center;html=1;shape=mxgraph.mockup.containers.anchor;rSize=0;fontSize=17;fontColor=#666666;align=left;" vertex="1" parent="fV-SpjQVINLK7v3Sb_gR-1">
          <mxGeometry x="130" y="60" width="250" height="26" as="geometry" />
        </mxCell>
        <mxCell id="fV-SpjQVINLK7v3Sb_gR-4" value="" style="verticalLabelPosition=bottom;shadow=0;dashed=0;align=center;html=1;verticalAlign=top;strokeWidth=1;shape=mxgraph.mockup.graphics.simpleIcon;strokeColor=#999999;" vertex="1" parent="fV-SpjQVINLK7v3Sb_gR-1">
          <mxGeometry x="10" y="110" width="70" height="70" as="geometry" />
        </mxCell>
        <mxCell id="fV-SpjQVINLK7v3Sb_gR-5" value="LOGO" style="text;html=1;resizable=0;autosize=1;align=center;verticalAlign=middle;points=[];fillColor=none;strokeColor=none;rounded=0;" vertex="1" parent="fV-SpjQVINLK7v3Sb_gR-1">
          <mxGeometry x="20" y="135" width="50" height="20" as="geometry" />
        </mxCell>
        <mxCell id="fV-SpjQVINLK7v3Sb_gR-6" value="" style="strokeWidth=1;shadow=0;dashed=0;align=center;html=1;shape=mxgraph.mockup.navigation.stepBar;strokeColor=#c4c4c4;textColor=#666666;textColor2=#008cff;mainText=Layer 1,Layer 2,+Layer 3,Layer 4;textSize=17;fillColor=#666666;overflow=fill;fontSize=17;fontColor=#666666;" vertex="1" parent="fV-SpjQVINLK7v3Sb_gR-1">
          <mxGeometry x="510" y="120" width="300" height="20" as="geometry" />
        </mxCell>
        <mxCell id="fV-SpjQVINLK7v3Sb_gR-197" value="" style="group" vertex="1" connectable="0" parent="fV-SpjQVINLK7v3Sb_gR-1">
          <mxGeometry x="10" y="490" width="800" height="280" as="geometry" />
        </mxCell>
        <mxCell id="fV-SpjQVINLK7v3Sb_gR-33" value="" style="verticalLabelPosition=bottom;shadow=0;dashed=0;align=center;html=1;verticalAlign=top;strokeWidth=1;shape=mxgraph.mockup.graphics.simpleIcon;strokeColor=#999999;" vertex="1" parent="fV-SpjQVINLK7v3Sb_gR-197">
          <mxGeometry width="800" height="280" as="geometry" />
        </mxCell>
        <mxCell id="fV-SpjQVINLK7v3Sb_gR-34" value="&lt;font style=&quot;font-size: 24px&quot;&gt;&lt;b&gt;Slider of the Different sections &lt;br&gt;of the Store&lt;/b&gt;&lt;/font&gt;" style="text;html=1;strokeColor=none;fillColor=none;align=center;verticalAlign=middle;whiteSpace=wrap;rounded=0;" vertex="1" parent="fV-SpjQVINLK7v3Sb_gR-197">
          <mxGeometry x="193" y="90" width="440" height="110" as="geometry" />
        </mxCell>
        <mxCell id="fV-SpjQVINLK7v3Sb_gR-207" value="" style="group" vertex="1" connectable="0" parent="fV-SpjQVINLK7v3Sb_gR-1">
          <mxGeometry x="30" y="3650" width="760" height="610" as="geometry" />
        </mxCell>
        <mxCell id="fV-SpjQVINLK7v3Sb_gR-198" value="" style="verticalLabelPosition=bottom;shadow=0;dashed=0;align=center;html=1;verticalAlign=top;strokeWidth=1;shape=mxgraph.mockup.graphics.simpleIcon;strokeColor=#999999;fillColor=#ffffff;" vertex="1" parent="fV-SpjQVINLK7v3Sb_gR-207">
          <mxGeometry width="190" height="152.5" as="geometry" />
        </mxCell>
        <mxCell id="fV-SpjQVINLK7v3Sb_gR-199" value="" style="verticalLabelPosition=bottom;shadow=0;dashed=0;align=center;html=1;verticalAlign=top;strokeWidth=1;shape=mxgraph.mockup.graphics.simpleIcon;strokeColor=#999999;fillColor=#ffffff;" vertex="1" parent="fV-SpjQVINLK7v3Sb_gR-207">
          <mxGeometry x="285" width="190" height="152.5" as="geometry" />
        </mxCell>
        <mxCell id="fV-SpjQVINLK7v3Sb_gR-200" value="" style="verticalLabelPosition=bottom;shadow=0;dashed=0;align=center;html=1;verticalAlign=top;strokeWidth=1;shape=mxgraph.mockup.graphics.simpleIcon;strokeColor=#999999;fillColor=#ffffff;" vertex="1" parent="fV-SpjQVINLK7v3Sb_gR-207">
          <mxGeometry x="570" width="190" height="152.5" as="geometry" />
        </mxCell>
        <mxCell id="fV-SpjQVINLK7v3Sb_gR-201" value="" style="verticalLabelPosition=bottom;shadow=0;dashed=0;align=center;html=1;verticalAlign=top;strokeWidth=1;shape=mxgraph.mockup.graphics.simpleIcon;strokeColor=#999999;fillColor=#ffffff;" vertex="1" parent="fV-SpjQVINLK7v3Sb_gR-207">
          <mxGeometry y="228.75" width="190" height="152.5" as="geometry" />
        </mxCell>
        <mxCell id="fV-SpjQVINLK7v3Sb_gR-202" value="" style="verticalLabelPosition=bottom;shadow=0;dashed=0;align=center;html=1;verticalAlign=top;strokeWidth=1;shape=mxgraph.mockup.graphics.simpleIcon;strokeColor=#999999;fillColor=#ffffff;" vertex="1" parent="fV-SpjQVINLK7v3Sb_gR-207">
          <mxGeometry x="285" y="228.75" width="190" height="152.5" as="geometry" />
        </mxCell>
        <mxCell id="fV-SpjQVINLK7v3Sb_gR-203" value="" style="verticalLabelPosition=bottom;shadow=0;dashed=0;align=center;html=1;verticalAlign=top;strokeWidth=1;shape=mxgraph.mockup.graphics.simpleIcon;strokeColor=#999999;fillColor=#ffffff;" vertex="1" parent="fV-SpjQVINLK7v3Sb_gR-207">
          <mxGeometry x="570" y="228.75" width="190" height="152.5" as="geometry" />
        </mxCell>
        <mxCell id="fV-SpjQVINLK7v3Sb_gR-204" value="" style="verticalLabelPosition=bottom;shadow=0;dashed=0;align=center;html=1;verticalAlign=top;strokeWidth=1;shape=mxgraph.mockup.graphics.simpleIcon;strokeColor=#999999;fillColor=#ffffff;" vertex="1" parent="fV-SpjQVINLK7v3Sb_gR-207">
          <mxGeometry y="457.5" width="190" height="152.5" as="geometry" />
        </mxCell>
        <mxCell id="fV-SpjQVINLK7v3Sb_gR-205" value="" style="verticalLabelPosition=bottom;shadow=0;dashed=0;align=center;html=1;verticalAlign=top;strokeWidth=1;shape=mxgraph.mockup.graphics.simpleIcon;strokeColor=#999999;fillColor=#ffffff;" vertex="1" parent="fV-SpjQVINLK7v3Sb_gR-207">
          <mxGeometry x="285" y="457.5" width="190" height="152.5" as="geometry" />
        </mxCell>
        <mxCell id="fV-SpjQVINLK7v3Sb_gR-206" value="" style="verticalLabelPosition=bottom;shadow=0;dashed=0;align=center;html=1;verticalAlign=top;strokeWidth=1;shape=mxgraph.mockup.graphics.simpleIcon;strokeColor=#999999;fillColor=#ffffff;" vertex="1" parent="fV-SpjQVINLK7v3Sb_gR-207">
          <mxGeometry x="570" y="457.5" width="190" height="152.5" as="geometry" />
        </mxCell>
        <mxCell id="fV-SpjQVINLK7v3Sb_gR-208" value="" style="group" vertex="1" connectable="0" parent="fV-SpjQVINLK7v3Sb_gR-1">
          <mxGeometry x="43" y="2900" width="760" height="610" as="geometry" />
        </mxCell>
        <mxCell id="fV-SpjQVINLK7v3Sb_gR-209" value="" style="verticalLabelPosition=bottom;shadow=0;dashed=0;align=center;html=1;verticalAlign=top;strokeWidth=1;shape=mxgraph.mockup.graphics.simpleIcon;strokeColor=#999999;fillColor=#ffffff;" vertex="1" parent="fV-SpjQVINLK7v3Sb_gR-208">
          <mxGeometry width="190" height="152.5" as="geometry" />
        </mxCell>
        <mxCell id="fV-SpjQVINLK7v3Sb_gR-210" value="" style="verticalLabelPosition=bottom;shadow=0;dashed=0;align=center;html=1;verticalAlign=top;strokeWidth=1;shape=mxgraph.mockup.graphics.simpleIcon;strokeColor=#999999;fillColor=#ffffff;" vertex="1" parent="fV-SpjQVINLK7v3Sb_gR-208">
          <mxGeometry x="285" width="190" height="152.5" as="geometry" />
        </mxCell>
        <mxCell id="fV-SpjQVINLK7v3Sb_gR-211" value="" style="verticalLabelPosition=bottom;shadow=0;dashed=0;align=center;html=1;verticalAlign=top;strokeWidth=1;shape=mxgraph.mockup.graphics.simpleIcon;strokeColor=#999999;fillColor=#ffffff;" vertex="1" parent="fV-SpjQVINLK7v3Sb_gR-208">
          <mxGeometry x="570" width="190" height="152.5" as="geometry" />
        </mxCell>
        <mxCell id="fV-SpjQVINLK7v3Sb_gR-212" value="" style="verticalLabelPosition=bottom;shadow=0;dashed=0;align=center;html=1;verticalAlign=top;strokeWidth=1;shape=mxgraph.mockup.graphics.simpleIcon;strokeColor=#999999;fillColor=#ffffff;" vertex="1" parent="fV-SpjQVINLK7v3Sb_gR-208">
          <mxGeometry y="228.75" width="190" height="152.5" as="geometry" />
        </mxCell>
        <mxCell id="fV-SpjQVINLK7v3Sb_gR-213" value="" style="verticalLabelPosition=bottom;shadow=0;dashed=0;align=center;html=1;verticalAlign=top;strokeWidth=1;shape=mxgraph.mockup.graphics.simpleIcon;strokeColor=#999999;fillColor=#ffffff;" vertex="1" parent="fV-SpjQVINLK7v3Sb_gR-208">
          <mxGeometry x="285" y="228.75" width="190" height="152.5" as="geometry" />
        </mxCell>
        <mxCell id="fV-SpjQVINLK7v3Sb_gR-214" value="" style="verticalLabelPosition=bottom;shadow=0;dashed=0;align=center;html=1;verticalAlign=top;strokeWidth=1;shape=mxgraph.mockup.graphics.simpleIcon;strokeColor=#999999;fillColor=#ffffff;" vertex="1" parent="fV-SpjQVINLK7v3Sb_gR-208">
          <mxGeometry x="570" y="228.75" width="190" height="152.5" as="geometry" />
        </mxCell>
        <mxCell id="fV-SpjQVINLK7v3Sb_gR-215" value="" style="verticalLabelPosition=bottom;shadow=0;dashed=0;align=center;html=1;verticalAlign=top;strokeWidth=1;shape=mxgraph.mockup.graphics.simpleIcon;strokeColor=#999999;fillColor=#ffffff;" vertex="1" parent="fV-SpjQVINLK7v3Sb_gR-208">
          <mxGeometry y="457.5" width="190" height="152.5" as="geometry" />
        </mxCell>
        <mxCell id="fV-SpjQVINLK7v3Sb_gR-216" value="" style="verticalLabelPosition=bottom;shadow=0;dashed=0;align=center;html=1;verticalAlign=top;strokeWidth=1;shape=mxgraph.mockup.graphics.simpleIcon;strokeColor=#999999;fillColor=#ffffff;" vertex="1" parent="fV-SpjQVINLK7v3Sb_gR-208">
          <mxGeometry x="285" y="457.5" width="190" height="152.5" as="geometry" />
        </mxCell>
        <mxCell id="fV-SpjQVINLK7v3Sb_gR-217" value="" style="verticalLabelPosition=bottom;shadow=0;dashed=0;align=center;html=1;verticalAlign=top;strokeWidth=1;shape=mxgraph.mockup.graphics.simpleIcon;strokeColor=#999999;fillColor=#ffffff;" vertex="1" parent="fV-SpjQVINLK7v3Sb_gR-208">
          <mxGeometry x="570" y="457.5" width="190" height="152.5" as="geometry" />
        </mxCell>
        <mxCell id="fV-SpjQVINLK7v3Sb_gR-228" value="" style="group" vertex="1" connectable="0" parent="fV-SpjQVINLK7v3Sb_gR-1">
          <mxGeometry x="30" y="2140" width="760" height="610" as="geometry" />
        </mxCell>
        <mxCell id="fV-SpjQVINLK7v3Sb_gR-218" value="" style="group" vertex="1" connectable="0" parent="fV-SpjQVINLK7v3Sb_gR-228">
          <mxGeometry width="760" height="610" as="geometry" />
        </mxCell>
        <mxCell id="fV-SpjQVINLK7v3Sb_gR-219" value="" style="verticalLabelPosition=bottom;shadow=0;dashed=0;align=center;html=1;verticalAlign=top;strokeWidth=1;shape=mxgraph.mockup.graphics.simpleIcon;strokeColor=#999999;fillColor=#ffffff;" vertex="1" parent="fV-SpjQVINLK7v3Sb_gR-218">
          <mxGeometry width="190" height="152.5" as="geometry" />
        </mxCell>
        <mxCell id="fV-SpjQVINLK7v3Sb_gR-220" value="" style="verticalLabelPosition=bottom;shadow=0;dashed=0;align=center;html=1;verticalAlign=top;strokeWidth=1;shape=mxgraph.mockup.graphics.simpleIcon;strokeColor=#999999;fillColor=#ffffff;" vertex="1" parent="fV-SpjQVINLK7v3Sb_gR-218">
          <mxGeometry x="285" width="190" height="152.5" as="geometry" />
        </mxCell>
        <mxCell id="fV-SpjQVINLK7v3Sb_gR-221" value="" style="verticalLabelPosition=bottom;shadow=0;dashed=0;align=center;html=1;verticalAlign=top;strokeWidth=1;shape=mxgraph.mockup.graphics.simpleIcon;strokeColor=#999999;fillColor=#ffffff;" vertex="1" parent="fV-SpjQVINLK7v3Sb_gR-218">
          <mxGeometry x="570" width="190" height="152.5" as="geometry" />
        </mxCell>
        <mxCell id="fV-SpjQVINLK7v3Sb_gR-222" value="" style="verticalLabelPosition=bottom;shadow=0;dashed=0;align=center;html=1;verticalAlign=top;strokeWidth=1;shape=mxgraph.mockup.graphics.simpleIcon;strokeColor=#999999;fillColor=#ffffff;" vertex="1" parent="fV-SpjQVINLK7v3Sb_gR-218">
          <mxGeometry y="228.75" width="190" height="152.5" as="geometry" />
        </mxCell>
        <mxCell id="fV-SpjQVINLK7v3Sb_gR-223" value="" style="verticalLabelPosition=bottom;shadow=0;dashed=0;align=center;html=1;verticalAlign=top;strokeWidth=1;shape=mxgraph.mockup.graphics.simpleIcon;strokeColor=#999999;fillColor=#ffffff;" vertex="1" parent="fV-SpjQVINLK7v3Sb_gR-218">
          <mxGeometry x="285" y="228.75" width="190" height="152.5" as="geometry" />
        </mxCell>
        <mxCell id="fV-SpjQVINLK7v3Sb_gR-224" value="" style="verticalLabelPosition=bottom;shadow=0;dashed=0;align=center;html=1;verticalAlign=top;strokeWidth=1;shape=mxgraph.mockup.graphics.simpleIcon;strokeColor=#999999;fillColor=#ffffff;" vertex="1" parent="fV-SpjQVINLK7v3Sb_gR-218">
          <mxGeometry x="570" y="228.75" width="190" height="152.5" as="geometry" />
        </mxCell>
        <mxCell id="fV-SpjQVINLK7v3Sb_gR-225" value="" style="verticalLabelPosition=bottom;shadow=0;dashed=0;align=center;html=1;verticalAlign=top;strokeWidth=1;shape=mxgraph.mockup.graphics.simpleIcon;strokeColor=#999999;fillColor=#ffffff;" vertex="1" parent="fV-SpjQVINLK7v3Sb_gR-218">
          <mxGeometry y="457.5" width="190" height="152.5" as="geometry" />
        </mxCell>
        <mxCell id="fV-SpjQVINLK7v3Sb_gR-226" value="" style="verticalLabelPosition=bottom;shadow=0;dashed=0;align=center;html=1;verticalAlign=top;strokeWidth=1;shape=mxgraph.mockup.graphics.simpleIcon;strokeColor=#999999;fillColor=#ffffff;" vertex="1" parent="fV-SpjQVINLK7v3Sb_gR-218">
          <mxGeometry x="285" y="457.5" width="190" height="152.5" as="geometry" />
        </mxCell>
        <mxCell id="fV-SpjQVINLK7v3Sb_gR-227" value="" style="verticalLabelPosition=bottom;shadow=0;dashed=0;align=center;html=1;verticalAlign=top;strokeWidth=1;shape=mxgraph.mockup.graphics.simpleIcon;strokeColor=#999999;fillColor=#ffffff;" vertex="1" parent="fV-SpjQVINLK7v3Sb_gR-218">
          <mxGeometry x="570" y="457.5" width="190" height="152.5" as="geometry" />
        </mxCell>
        <mxCell id="fV-SpjQVINLK7v3Sb_gR-229" value="" style="group" vertex="1" connectable="0" parent="fV-SpjQVINLK7v3Sb_gR-1">
          <mxGeometry x="27" y="1380" width="760" height="610" as="geometry" />
        </mxCell>
        <mxCell id="fV-SpjQVINLK7v3Sb_gR-230" value="" style="group" vertex="1" connectable="0" parent="fV-SpjQVINLK7v3Sb_gR-229">
          <mxGeometry width="760" height="610" as="geometry" />
        </mxCell>
        <mxCell id="fV-SpjQVINLK7v3Sb_gR-231" value="" style="verticalLabelPosition=bottom;shadow=0;dashed=0;align=center;html=1;verticalAlign=top;strokeWidth=1;shape=mxgraph.mockup.graphics.simpleIcon;strokeColor=#999999;fillColor=#ffffff;" vertex="1" parent="fV-SpjQVINLK7v3Sb_gR-230">
          <mxGeometry width="190" height="152.5" as="geometry" />
        </mxCell>
        <mxCell id="fV-SpjQVINLK7v3Sb_gR-232" value="" style="verticalLabelPosition=bottom;shadow=0;dashed=0;align=center;html=1;verticalAlign=top;strokeWidth=1;shape=mxgraph.mockup.graphics.simpleIcon;strokeColor=#999999;fillColor=#ffffff;" vertex="1" parent="fV-SpjQVINLK7v3Sb_gR-230">
          <mxGeometry x="285" width="190" height="152.5" as="geometry" />
        </mxCell>
        <mxCell id="fV-SpjQVINLK7v3Sb_gR-233" value="" style="verticalLabelPosition=bottom;shadow=0;dashed=0;align=center;html=1;verticalAlign=top;strokeWidth=1;shape=mxgraph.mockup.graphics.simpleIcon;strokeColor=#999999;fillColor=#ffffff;" vertex="1" parent="fV-SpjQVINLK7v3Sb_gR-230">
          <mxGeometry x="570" width="190" height="152.5" as="geometry" />
        </mxCell>
        <mxCell id="fV-SpjQVINLK7v3Sb_gR-234" value="" style="verticalLabelPosition=bottom;shadow=0;dashed=0;align=center;html=1;verticalAlign=top;strokeWidth=1;shape=mxgraph.mockup.graphics.simpleIcon;strokeColor=#999999;fillColor=#ffffff;" vertex="1" parent="fV-SpjQVINLK7v3Sb_gR-230">
          <mxGeometry y="228.75" width="190" height="152.5" as="geometry" />
        </mxCell>
        <mxCell id="fV-SpjQVINLK7v3Sb_gR-235" value="" style="verticalLabelPosition=bottom;shadow=0;dashed=0;align=center;html=1;verticalAlign=top;strokeWidth=1;shape=mxgraph.mockup.graphics.simpleIcon;strokeColor=#999999;fillColor=#ffffff;" vertex="1" parent="fV-SpjQVINLK7v3Sb_gR-230">
          <mxGeometry x="285" y="228.75" width="190" height="152.5" as="geometry" />
        </mxCell>
        <mxCell id="fV-SpjQVINLK7v3Sb_gR-236" value="" style="verticalLabelPosition=bottom;shadow=0;dashed=0;align=center;html=1;verticalAlign=top;strokeWidth=1;shape=mxgraph.mockup.graphics.simpleIcon;strokeColor=#999999;fillColor=#ffffff;" vertex="1" parent="fV-SpjQVINLK7v3Sb_gR-230">
          <mxGeometry x="570" y="228.75" width="190" height="152.5" as="geometry" />
        </mxCell>
        <mxCell id="fV-SpjQVINLK7v3Sb_gR-240" value="" style="group" vertex="1" connectable="0" parent="fV-SpjQVINLK7v3Sb_gR-230">
          <mxGeometry y="457.5" width="760" height="152.5" as="geometry" />
        </mxCell>
        <mxCell id="fV-SpjQVINLK7v3Sb_gR-237" value="" style="verticalLabelPosition=bottom;shadow=0;dashed=0;align=center;html=1;verticalAlign=top;strokeWidth=1;shape=mxgraph.mockup.graphics.simpleIcon;strokeColor=#999999;fillColor=#ffffff;" vertex="1" parent="fV-SpjQVINLK7v3Sb_gR-240">
          <mxGeometry width="190" height="152.5" as="geometry" />
        </mxCell>
        <mxCell id="fV-SpjQVINLK7v3Sb_gR-238" value="" style="verticalLabelPosition=bottom;shadow=0;dashed=0;align=center;html=1;verticalAlign=top;strokeWidth=1;shape=mxgraph.mockup.graphics.simpleIcon;strokeColor=#999999;fillColor=#ffffff;" vertex="1" parent="fV-SpjQVINLK7v3Sb_gR-240">
          <mxGeometry x="285" width="190" height="152.5" as="geometry" />
        </mxCell>
        <mxCell id="fV-SpjQVINLK7v3Sb_gR-239" value="" style="verticalLabelPosition=bottom;shadow=0;dashed=0;align=center;html=1;verticalAlign=top;strokeWidth=1;shape=mxgraph.mockup.graphics.simpleIcon;strokeColor=#999999;fillColor=#ffffff;" vertex="1" parent="fV-SpjQVINLK7v3Sb_gR-240">
          <mxGeometry x="570" width="190" height="152.5" as="geometry" />
        </mxCell>
        <mxCell id="fV-SpjQVINLK7v3Sb_gR-241" value="" style="group" vertex="1" connectable="0" parent="fV-SpjQVINLK7v3Sb_gR-1">
          <mxGeometry x="30" y="960" width="760" height="152.5" as="geometry" />
        </mxCell>
        <mxCell id="fV-SpjQVINLK7v3Sb_gR-242" value="" style="verticalLabelPosition=bottom;shadow=0;dashed=0;align=center;html=1;verticalAlign=top;strokeWidth=1;shape=mxgraph.mockup.graphics.simpleIcon;strokeColor=#999999;fillColor=#ffffff;" vertex="1" parent="fV-SpjQVINLK7v3Sb_gR-241">
          <mxGeometry width="190" height="152.5" as="geometry" />
        </mxCell>
        <mxCell id="fV-SpjQVINLK7v3Sb_gR-243" value="" style="verticalLabelPosition=bottom;shadow=0;dashed=0;align=center;html=1;verticalAlign=top;strokeWidth=1;shape=mxgraph.mockup.graphics.simpleIcon;strokeColor=#999999;fillColor=#ffffff;" vertex="1" parent="fV-SpjQVINLK7v3Sb_gR-241">
          <mxGeometry x="285" width="190" height="152.5" as="geometry" />
        </mxCell>
        <mxCell id="fV-SpjQVINLK7v3Sb_gR-244" value="" style="verticalLabelPosition=bottom;shadow=0;dashed=0;align=center;html=1;verticalAlign=top;strokeWidth=1;shape=mxgraph.mockup.graphics.simpleIcon;strokeColor=#999999;fillColor=#ffffff;" vertex="1" parent="fV-SpjQVINLK7v3Sb_gR-241">
          <mxGeometry x="570" width="190" height="152.5" as="geometry" />
        </mxCell>
        <mxCell id="fV-SpjQVINLK7v3Sb_gR-245" value="" style="group" vertex="1" connectable="0" parent="fV-SpjQVINLK7v3Sb_gR-1">
          <mxGeometry x="30" y="1110" width="760" height="152.5" as="geometry" />
        </mxCell>
        <mxCell id="fV-SpjQVINLK7v3Sb_gR-246" value="" style="verticalLabelPosition=bottom;shadow=0;dashed=0;align=center;html=1;verticalAlign=top;strokeWidth=1;shape=mxgraph.mockup.graphics.simpleIcon;strokeColor=#999999;fillColor=#ffffff;" vertex="1" parent="fV-SpjQVINLK7v3Sb_gR-245">
          <mxGeometry width="190" height="152.5" as="geometry" />
        </mxCell>
        <mxCell id="fV-SpjQVINLK7v3Sb_gR-247" value="" style="verticalLabelPosition=bottom;shadow=0;dashed=0;align=center;html=1;verticalAlign=top;strokeWidth=1;shape=mxgraph.mockup.graphics.simpleIcon;strokeColor=#999999;fillColor=#ffffff;" vertex="1" parent="fV-SpjQVINLK7v3Sb_gR-245">
          <mxGeometry x="285" width="190" height="152.5" as="geometry" />
        </mxCell>
        <mxCell id="fV-SpjQVINLK7v3Sb_gR-248" value="" style="verticalLabelPosition=bottom;shadow=0;dashed=0;align=center;html=1;verticalAlign=top;strokeWidth=1;shape=mxgraph.mockup.graphics.simpleIcon;strokeColor=#999999;fillColor=#ffffff;" vertex="1" parent="fV-SpjQVINLK7v3Sb_gR-245">
          <mxGeometry x="570" width="190" height="152.5" as="geometry" />
        </mxCell>
        <mxCell id="fV-SpjQVINLK7v3Sb_gR-252" value="&lt;h1&gt;Heading&lt;/h1&gt;&lt;p&gt;Lorem ipsum dolor sit amet, consectetur adipisicing elit, sed do eiusmod tempor incididunt ut labore et dolore magna aliqua.&lt;/p&gt;" style="text;html=1;strokeColor=none;fillColor=none;spacing=5;spacingTop=-20;whiteSpace=wrap;overflow=hidden;rounded=0;" vertex="1" parent="fV-SpjQVINLK7v3Sb_gR-1">
          <mxGeometry x="70" y="270" width="670" height="110" as="geometry" />
        </mxCell>
      </root>
    </mxGraphModel>
  </diagram>
</mxfile>
